<svg xmlns="http://www.w3.org/2000/svg" xmlns:xlink="http://www.w3.org/1999/xlink" width="700" zoomAndPan="magnify" viewBox="0 0 525 149.999998" height="200" preserveAspectRatio="xMidYMid meet" version="1.0"><defs><g/></defs><rect x="-52.5" width="630" fill="#ffffff" y="-15" height="179.999997" fill-opacity="1"/><rect x="-52.5" width="630" fill="#ffffff" y="-15" height="179.999997" fill-opacity="1"/><g fill="#ffdd27" fill-opacity="1"><g transform="translate(60.64912, 96.461458)"><g><path d="M 0.90625 -43.824219 C 0.90625 -40.566406 3.984375 -42.015625 3.984375 -33.59375 L 3.984375 -11.679688 C 3.984375 -3.167969 0.90625 -3.804688 0.90625 -1.175781 C 0.90625 0.179688 1.71875 0.542969 2.714844 0.542969 C 3.984375 0.542969 5.613281 0 6.792969 0 C 7.96875 0 9.777344 0.542969 11.136719 0.542969 C 12.222656 0.542969 13.039062 0.179688 13.039062 -1.175781 C 13.039062 -3.804688 9.960938 -3.167969 9.960938 -11.679688 L 9.960938 -33.410156 C 9.960938 -33.59375 10.503906 -34.046875 10.683594 -33.503906 C 12.496094 -28.070312 17.292969 -13.039062 20.824219 -3.167969 C 21.640625 -0.90625 22.457031 0.542969 23.722656 0.542969 C 25.351562 0.542969 25.988281 -0.542969 26.894531 -3.167969 C 30.332031 -13.128906 35.402344 -28.070312 37.214844 -33.503906 C 37.394531 -34.046875 37.9375 -33.59375 37.9375 -33.410156 C 37.9375 -27.253906 38.03125 -16.027344 38.03125 -11.679688 C 38.03125 -3.167969 34.953125 -4.347656 34.953125 -1.71875 C 34.953125 0.0898438 36.492188 0.542969 38.574219 0.542969 C 40.746094 0.542969 43.460938 0 45.273438 0 C 47.085938 0 49.800781 0.542969 51.972656 0.542969 C 54.058594 0.542969 55.597656 0.0898438 55.597656 -1.71875 C 55.597656 -4.347656 52.515625 -3.167969 52.515625 -11.679688 L 52.515625 -33.59375 C 52.515625 -42.015625 55.597656 -40.566406 55.597656 -43.824219 C 55.597656 -45.453125 54.238281 -45.816406 52.246094 -45.816406 C 49.980469 -45.816406 47.085938 -45.273438 44.730469 -45.273438 C 42.738281 -45.273438 40.925781 -45.90625 39.296875 -45.90625 C 37.394531 -45.90625 35.675781 -45.09375 34.316406 -41.5625 C 34.316406 -41.5625 32.507812 -35.496094 29.609375 -27.527344 C 29.15625 -26.257812 28.613281 -26.257812 28.160156 -27.527344 C 25.351562 -35.496094 23.453125 -41.5625 23.453125 -41.5625 C 22.09375 -45.09375 20.375 -45.90625 18.289062 -45.90625 C 16.390625 -45.90625 14.304688 -45.273438 11.769531 -45.273438 C 9.417969 -45.273438 6.519531 -45.816406 4.253906 -45.816406 C 2.265625 -45.816406 0.90625 -45.453125 0.90625 -43.824219 Z M 0.90625 -43.824219 "/></g></g></g><g fill="#ffdd27" fill-opacity="1"><g transform="translate(114.519553, 96.461458)"><g><path d="M 0.453125 -1.71875 C 0.453125 0 1.992188 0.542969 3.710938 0.542969 C 5.796875 0.542969 6.519531 0 8.332031 0 C 10.140625 0 10.867188 0.542969 12.949219 0.542969 C 14.667969 0.542969 16.207031 0 16.207031 -1.71875 C 16.207031 -3.894531 13.308594 -3.710938 13.308594 -9.054688 C 13.308594 -11.863281 14.757812 -13.492188 16.84375 -13.492188 L 25.171875 -13.492188 C 27.253906 -13.492188 28.703125 -11.863281 28.703125 -9.054688 C 28.703125 -3.710938 26.441406 -4.347656 26.441406 -1.71875 C 26.441406 0.0898438 28.160156 0.542969 30.332031 0.542969 C 32.6875 0.542969 35.585938 0 37.394531 0 C 41.109375 0 44.367188 0.542969 46.722656 0.542969 C 48.804688 0.542969 50.074219 0.0898438 50.074219 -1.71875 C 50.074219 -3.53125 48.714844 -3.710938 46.722656 -6.246094 C 43.734375 -10.050781 36.308594 -37.304688 33.683594 -43.734375 C 32.867188 -45.726562 32.054688 -45.816406 30.695312 -45.816406 C 28.882812 -45.816406 27.34375 -45.273438 23.8125 -45.273438 C 20.644531 -45.273438 20.191406 -45.816406 17.929688 -45.816406 C 16.027344 -45.816406 14.214844 -45.546875 14.214844 -43.914062 C 14.214844 -41.472656 17.835938 -42.648438 16.027344 -37.214844 C 12.585938 -26.894531 7.785156 -10.773438 5.613281 -7.695312 C 2.714844 -3.621094 0.453125 -3.894531 0.453125 -1.71875 Z M 15.847656 -20.011719 C 17.476562 -24.628906 19.015625 -30.242188 20.191406 -33.59375 C 20.464844 -34.316406 20.734375 -34.679688 21.007812 -34.679688 C 21.277344 -34.679688 21.550781 -34.316406 21.820312 -33.503906 C 22.816406 -30.152344 24.265625 -24.628906 25.898438 -20.011719 C 26.347656 -18.742188 25.804688 -17.929688 24.539062 -17.929688 L 17.203125 -17.929688 C 15.9375 -17.929688 15.394531 -18.742188 15.847656 -20.011719 Z M 15.847656 -20.011719 "/></g></g></g><g fill="#ffdd27" fill-opacity="1"><g transform="translate(162.414408, 96.461458)"><g><path d="M 0.90625 -43.554688 C 0.90625 -40.925781 3.984375 -42.105469 3.984375 -33.59375 L 3.984375 -17.746094 C 3.984375 -4.800781 11.046875 0.542969 24.085938 0.542969 C 37.304688 0.542969 44.007812 -4.890625 44.007812 -17.746094 L 44.007812 -33.683594 C 44.007812 -42.195312 47.085938 -41.019531 47.085938 -43.644531 C 47.085938 -45.453125 45.453125 -45.90625 43.460938 -45.90625 C 41.199219 -45.90625 38.484375 -45.363281 36.671875 -45.363281 C 34.859375 -45.363281 32.144531 -45.90625 29.972656 -45.90625 C 27.886719 -45.90625 26.347656 -45.453125 26.347656 -43.644531 C 26.347656 -41.019531 29.429688 -42.195312 29.429688 -33.683594 L 29.429688 -15.9375 C 29.429688 -11.410156 28.976562 -5.34375 23.996094 -5.34375 C 19.015625 -5.34375 18.5625 -11.410156 18.5625 -15.9375 L 18.5625 -33.683594 C 18.5625 -42.105469 21.640625 -40.925781 21.640625 -43.554688 C 21.640625 -45.363281 20.011719 -45.816406 18.019531 -45.816406 C 15.753906 -45.816406 13.039062 -45.273438 11.226562 -45.273438 C 9.417969 -45.273438 6.699219 -45.816406 4.527344 -45.816406 C 2.445312 -45.816406 0.90625 -45.363281 0.90625 -43.554688 Z M 0.90625 -43.554688 "/></g></g></g><g fill="#ffdd27" fill-opacity="1"><g transform="translate(207.774173, 96.461458)"><g><path d="M 11.226562 0 C 14.757812 0 20.28125 0.542969 23.90625 0.542969 C 35.402344 0.542969 42.015625 -3.53125 42.015625 -13.128906 C 42.015625 -19.921875 36.851562 -26.078125 28.613281 -24.902344 C 24.992188 -24.355469 24.902344 -24.71875 24.902344 -25.082031 C 24.902344 -26.167969 37.847656 -26.167969 37.847656 -35.675781 C 37.847656 -42.195312 32.507812 -45.816406 25.261719 -45.816406 C 19.285156 -45.816406 16.75 -45.273438 11.226562 -45.273438 C 9.417969 -45.273438 6.699219 -45.816406 4.527344 -45.816406 C 2.445312 -45.816406 0.90625 -45.363281 0.90625 -43.554688 C 0.90625 -40.925781 3.984375 -42.105469 3.984375 -33.59375 L 3.984375 -11.679688 C 3.984375 -3.167969 0.90625 -4.347656 0.90625 -1.71875 C 0.90625 0.0898438 2.445312 0.542969 4.527344 0.542969 C 6.699219 0.542969 9.417969 0 11.226562 0 Z M 18.5625 -20.011719 C 18.5625 -21.460938 19.558594 -22.09375 20.824219 -22.09375 C 25.082031 -22.09375 26.894531 -18.199219 26.894531 -13.492188 C 26.894531 -6.972656 24.992188 -4.527344 20.824219 -4.527344 C 19.558594 -4.527344 18.5625 -5.160156 18.5625 -6.609375 Z M 18.5625 -29.429688 L 18.5625 -38.300781 C 18.5625 -39.660156 19.46875 -40.382812 20.824219 -40.382812 C 22.636719 -40.382812 24.355469 -38.753906 24.355469 -33.957031 C 24.355469 -29.972656 22.636719 -27.4375 20.824219 -27.4375 C 19.648438 -27.4375 18.5625 -27.796875 18.5625 -29.429688 Z M 18.5625 -29.429688 "/></g></g></g><g fill="#ffdd27" fill-opacity="1"><g transform="translate(248.969148, 96.461458)"><g><path d="M 0.90625 -1.71875 C 0.90625 0.0898438 2.445312 0.542969 4.527344 0.542969 C 6.699219 0.542969 9.417969 0 11.226562 0 C 13.039062 0 15.753906 0.542969 17.929688 0.542969 C 20.011719 0.542969 21.550781 0.0898438 21.550781 -1.71875 C 21.550781 -4.347656 18.472656 -3.167969 18.472656 -11.679688 L 18.472656 -33.59375 C 18.472656 -42.105469 21.550781 -40.925781 21.550781 -43.554688 C 21.550781 -45.363281 20.011719 -45.816406 17.929688 -45.816406 C 15.753906 -45.816406 13.039062 -45.273438 11.226562 -45.273438 C 9.417969 -45.273438 6.699219 -45.816406 4.527344 -45.816406 C 2.445312 -45.816406 0.90625 -45.363281 0.90625 -43.554688 C 0.90625 -40.925781 3.984375 -42.105469 3.984375 -33.59375 L 3.984375 -11.679688 C 3.984375 -3.167969 0.90625 -4.347656 0.90625 -1.71875 Z M 0.90625 -1.71875 "/></g></g></g><g fill="#ffdd27" fill-opacity="1"><g transform="translate(268.796906, 96.461458)"><g><path d="M 0.90625 -1.175781 C 0.90625 0.179688 1.71875 0.542969 2.714844 0.542969 C 3.984375 0.542969 5.613281 0 6.792969 0 C 7.96875 0 9.777344 0.542969 11.136719 0.542969 C 12.222656 0.542969 13.039062 0.179688 13.039062 -1.175781 C 13.039062 -3.804688 9.960938 -3.167969 9.960938 -11.679688 L 9.960938 -25.714844 C 9.960938 -27.074219 10.59375 -27.253906 11.410156 -26.167969 C 15.210938 -21.097656 21.914062 -11.410156 27.34375 -2.808594 C 29.066406 -0.0898438 30.242188 0.542969 31.601562 0.542969 C 32.867188 0.542969 34.316406 0 36.492188 0 C 38.210938 0 40.382812 0.542969 42.105469 0.542969 C 43.734375 0.542969 44.910156 0.0898438 44.910156 -1.8125 C 44.910156 -4.4375 41.832031 -3.53125 41.832031 -11.679688 L 41.832031 -33.59375 C 41.832031 -42.105469 44.910156 -41.472656 44.910156 -44.097656 C 44.910156 -45.453125 44.097656 -45.816406 43.101562 -45.816406 C 41.832031 -45.816406 40.203125 -45.273438 39.027344 -45.273438 C 37.847656 -45.273438 36.039062 -45.816406 34.679688 -45.816406 C 33.59375 -45.816406 32.777344 -45.453125 32.777344 -44.097656 C 32.777344 -41.472656 35.855469 -42.105469 35.855469 -33.59375 L 35.855469 -20.464844 C 35.855469 -19.105469 35.3125 -18.832031 34.5 -20.011719 L 18.472656 -42.464844 C 16.480469 -45.183594 15.394531 -45.90625 14.035156 -45.90625 C 12.859375 -45.90625 11.5 -45.273438 9.328125 -45.273438 C 7.605469 -45.273438 5.433594 -45.816406 3.710938 -45.816406 C 2.082031 -45.816406 0.90625 -45.363281 0.90625 -43.460938 C 0.90625 -40.835938 3.984375 -41.742188 3.984375 -33.59375 L 3.984375 -11.679688 C 3.984375 -3.167969 0.90625 -3.804688 0.90625 -1.175781 Z M 0.90625 -1.175781 "/></g></g></g><path stroke-linecap="butt" transform="matrix(0.75, 0, 0, 0.75, 57.297558, -0.288536)" fill="none" stroke-linejoin="miter" d="M 5.676173 70.582636 C 5.676173 74.910761 9.775132 72.968053 9.775132 84.19722 L 9.775132 113.436805 C 9.775132 124.785764 5.676173 123.931597 5.676173 127.436806 C 5.676173 129.233681 6.769923 129.738889 8.09284 129.738889 C 9.775132 129.738889 11.957424 128.999306 13.519924 128.999306 C 15.077215 128.999306 17.499091 129.738889 19.322007 129.738889 C 20.769924 129.738889 21.858466 129.233681 21.858466 127.436806 C 21.858466 123.931597 17.759507 124.785764 17.759507 113.436805 L 17.759507 84.462845 C 17.759507 84.19722 18.467841 83.608678 18.707424 84.317012 C 21.124091 91.567012 27.519924 111.60868 32.233466 124.785764 C 33.327217 127.790973 34.415758 129.738889 36.09805 129.738889 C 38.275133 129.738889 39.1293 128.264931 40.337634 124.785764 C 44.910551 111.494097 51.686593 91.567012 54.077218 84.317012 C 54.342843 83.608678 55.045968 84.19722 55.045968 84.462845 C 55.045968 92.655554 55.165759 107.629513 55.165759 113.436805 C 55.165759 124.785764 51.066801 123.192014 51.066801 126.702431 C 51.066801 129.119098 53.134509 129.738889 55.905343 129.738889 C 58.79076 129.738889 62.41576 128.999306 64.832427 128.999306 C 67.249093 128.999306 70.874094 129.738889 73.764719 129.738889 C 76.535552 129.738889 78.598052 129.119098 78.598052 126.702431 C 78.598052 123.192014 74.499094 124.785764 74.499094 113.436805 L 74.499094 84.19722 C 74.499094 72.968053 78.598052 74.910761 78.598052 70.582636 C 78.598052 68.400344 76.769927 67.900344 74.118886 67.900344 C 71.113677 67.900344 67.249093 68.634719 64.098052 68.634719 C 61.441801 68.634719 59.025135 67.780553 56.874093 67.780553 C 54.342843 67.780553 52.040759 68.869094 50.212634 73.587845 C 50.212634 73.587845 47.795967 81.660762 43.936592 92.301387 C 43.34805 93.983679 42.608467 93.983679 42.019925 92.301387 C 38.275133 81.660762 35.743883 73.587845 35.743883 73.587845 C 33.915758 68.869094 31.644925 67.780553 28.842841 67.780553 C 26.311591 67.780553 23.540758 68.634719 20.150132 68.634719 C 17.025132 68.634719 13.165757 67.900344 10.15534 67.900344 C 7.473048 67.900344 5.676173 68.400344 5.676173 70.582636 Z M 76.884511 126.702431 C 76.884511 128.999306 78.947011 129.738889 81.249094 129.738889 C 84.019928 129.738889 84.988678 128.999306 87.410553 128.999306 C 89.82722 128.999306 90.79597 129.738889 93.566803 129.738889 C 95.868887 129.738889 97.900137 128.999306 97.900137 126.702431 C 97.900137 123.811806 94.040762 124.046181 94.040762 116.915972 C 94.040762 113.17118 95.98347 111.020138 98.754304 111.020138 L 109.868888 111.020138 C 112.639721 111.020138 114.556388 113.17118 114.556388 116.915972 C 114.556388 124.046181 111.545971 123.192014 111.545971 126.702431 C 111.545971 129.119098 113.848055 129.738889 116.733471 129.738889 C 119.889722 129.738889 123.749097 128.999306 126.165764 128.999306 C 131.118889 128.999306 135.452222 129.738889 138.608473 129.738889 C 141.379306 129.738889 143.05639 129.119098 143.05639 126.702431 C 143.05639 124.285764 141.259514 124.046181 138.608473 120.660764 C 134.598056 115.587847 124.691805 79.244095 121.217847 70.697219 C 120.124097 68.046178 119.035555 67.900344 117.23868 67.900344 C 114.822013 67.900344 112.754304 68.634719 108.040763 68.634719 C 103.827221 68.634719 103.207429 67.900344 100.20222 67.900344 C 97.665762 67.900344 95.249095 68.280553 95.249095 70.431594 C 95.249095 73.702428 100.082429 72.145136 97.665762 79.395137 C 93.066803 93.129512 86.67097 114.645139 83.780344 118.744097 C 79.920969 124.165972 76.884511 123.811806 76.884511 126.702431 Z M 97.431387 102.32743 C 99.60847 96.165971 101.644929 88.676387 103.207429 84.19722 C 103.587637 83.254512 103.941804 82.754512 104.295971 82.754512 C 104.681387 82.754512 105.035554 83.254512 105.389721 84.317012 C 106.712637 88.796179 108.660554 96.165971 110.811596 102.32743 C 111.431388 104.004513 110.691804 105.098263 109.014721 105.098263 L 99.228262 105.098263 C 97.54597 105.098263 96.811595 104.004513 97.431387 102.32743 Z M 141.363681 70.931594 C 141.363681 74.442011 145.46264 72.848261 145.46264 84.19722 L 145.46264 105.332638 C 145.46264 122.603472 154.894932 129.738889 172.285558 129.738889 C 189.910559 129.738889 198.842851 122.483681 198.842851 105.332638 L 198.842851 84.077428 C 198.842851 72.733678 202.936601 74.32222 202.936601 70.817011 C 202.936601 68.400344 200.75431 67.780553 198.103268 67.780553 C 195.098059 67.780553 191.473059 68.514928 189.056392 68.514928 C 186.639725 68.514928 183.014725 67.780553 180.1241 67.780553 C 177.353267 67.780553 175.290766 68.400344 175.290766 70.817011 C 175.290766 74.32222 179.389725 72.733678 179.389725 84.077428 L 179.389725 107.749305 C 179.389725 113.790972 178.795975 121.869097 172.134516 121.869097 C 165.504308 121.869097 164.915766 113.790972 164.915766 107.749305 L 164.915766 84.077428 C 164.915766 72.848261 169.009516 74.442011 169.009516 70.931594 C 169.009516 68.514928 166.832433 67.900344 164.176182 67.900344 C 161.170974 67.900344 157.545974 68.634719 155.129307 68.634719 C 152.71264 68.634719 149.08764 67.900344 146.197015 67.900344 C 143.426181 67.900344 141.363681 68.514928 141.363681 70.931594 Z M 215.608477 128.999306 C 220.327227 128.999306 227.691811 129.738889 232.499103 129.738889 C 247.853271 129.738889 256.665771 124.285764 256.665771 111.494097 C 256.665771 102.442013 249.769937 94.218054 238.775145 95.811804 C 233.941812 96.520138 233.82202 96.046179 233.82202 95.546179 C 233.82202 94.103471 251.098063 94.103471 251.098063 81.426387 C 251.098063 72.733678 243.962645 67.900344 234.327228 67.900344 C 226.337644 67.900344 222.978269 68.634719 215.608477 68.634719 C 213.19181 68.634719 209.56681 67.900344 206.676185 67.900344 C 203.905351 67.900344 201.842851 68.514928 201.842851 70.931594 C 201.842851 74.442011 205.94181 72.848261 205.94181 84.19722 L 205.94181 113.436805 C 205.94181 124.785764 201.842851 123.192014 201.842851 126.702431 C 201.842851 129.119098 203.905351 129.738889 206.676185 129.738889 C 209.56681 129.738889 213.19181 128.999306 215.608477 128.999306 Z M 225.394936 102.32743 C 225.394936 100.379513 226.723061 99.556596 228.400145 99.556596 C 234.087645 99.556596 236.504312 104.744096 236.504312 111.020138 C 236.504312 119.712847 233.941812 122.957639 228.400145 122.957639 C 226.723061 122.957639 225.394936 122.134722 225.394936 120.186806 Z M 225.394936 89.770137 L 225.394936 77.921178 C 225.394936 76.119095 226.603269 75.150345 228.400145 75.150345 C 230.816811 75.150345 233.118895 77.332636 233.118895 83.72847 C 233.118895 89.030554 230.816811 92.421179 228.400145 92.421179 C 226.837644 92.421179 225.394936 91.947221 225.394936 89.770137 Z M 256.769938 126.702431 C 256.769938 129.119098 258.832438 129.738889 261.603271 129.738889 C 264.493897 129.738889 268.118897 128.999306 270.535564 128.999306 C 272.95223 128.999306 276.577231 129.738889 279.467856 129.738889 C 282.238689 129.738889 284.301189 129.119098 284.301189 126.702431 C 284.301189 123.192014 280.202231 124.785764 280.202231 113.436805 L 280.202231 84.19722 C 280.202231 72.848261 284.301189 74.442011 284.301189 70.931594 C 284.301189 68.514928 282.238689 67.900344 279.467856 67.900344 C 276.577231 67.900344 272.95223 68.634719 270.535564 68.634719 C 268.118897 68.634719 264.493897 67.900344 261.603271 67.900344 C 258.832438 67.900344 256.769938 68.514928 256.769938 70.931594 C 256.769938 74.442011 260.868896 72.848261 260.868896 84.19722 L 260.868896 113.436805 C 260.868896 124.785764 256.769938 123.192014 256.769938 126.702431 Z M 283.207439 127.436806 C 283.207439 129.233681 284.295981 129.738889 285.624106 129.738889 C 287.306398 129.738889 289.483481 128.999306 291.045982 128.999306 C 292.608482 128.999306 295.025148 129.738889 296.853274 129.738889 C 298.30119 129.738889 299.389732 129.233681 299.389732 127.436806 C 299.389732 123.931597 295.290773 124.785764 295.290773 113.436805 L 295.290773 94.718054 C 295.290773 92.895137 296.118898 92.655554 297.20744 94.103471 C 302.280357 100.879513 311.207441 113.790972 318.457441 125.254514 C 320.759525 128.879514 322.322025 129.738889 324.15015 129.738889 C 325.827234 129.738889 327.7439 128.999306 330.660567 128.999306 C 332.962651 128.999306 335.848067 129.738889 338.150151 129.738889 C 340.301193 129.738889 341.894943 129.119098 341.894943 126.582639 C 341.894943 123.077431 337.764734 124.285764 337.764734 113.436805 L 337.764734 84.19722 C 337.764734 72.848261 341.894943 73.702428 341.894943 70.197219 C 341.894943 68.400344 340.801193 67.900344 339.473068 67.900344 C 337.764734 67.900344 335.613692 68.634719 334.025151 68.634719 C 332.462651 68.634719 330.045984 67.900344 328.2439 67.900344 C 326.801192 67.900344 325.71265 68.400344 325.71265 70.197219 C 325.71265 73.702428 329.8064 72.848261 329.8064 84.19722 L 329.8064 101.707638 C 329.8064 103.535763 329.072025 103.884721 328.009525 102.32743 L 306.639732 72.379511 C 303.957441 68.754511 302.514732 67.780553 300.717857 67.780553 C 299.155357 67.780553 297.327232 68.634719 294.436607 68.634719 C 292.139732 68.634719 289.249106 67.900344 286.952231 67.900344 C 284.76994 67.900344 283.207439 68.514928 283.207439 71.051386 C 283.207439 74.561803 287.306398 73.35347 287.306398 84.19722 L 287.306398 113.436805 C 287.306398 124.785764 283.207439 123.931597 283.207439 127.436806 Z M 283.207439 127.436806 " stroke="#f55d00" stroke-width="2.565555" stroke-opacity="1" stroke-miterlimit="4"/><g fill="#ffdd27" fill-opacity="1"><g transform="translate(311.992855, 96.461458)"><g/></g></g><g fill="#ff7817" fill-opacity="1"><g transform="translate(331.914652, 98.426055)"><g><path d="M 31.15625 -43.5625 C 36.53125 -43.5625 40.726562 -42.289062 43.75 -39.75 C 46.78125 -37.21875 48.296875 -33.5625 48.296875 -28.78125 C 48.296875 -26.519531 47.953125 -24.09375 47.265625 -21.5 C 45.992188 -16.71875 44.015625 -12.660156 41.328125 -9.328125 C 38.640625 -6.003906 35.4375 -3.488281 31.71875 -1.78125 C 28.007812 -0.0820312 23.984375 0.765625 19.640625 0.765625 C 14.304688 0.765625 10.125 -0.5 7.09375 -3.03125 C 4.070312 -5.570312 2.5625 -9.234375 2.5625 -14.015625 C 2.5625 -16.179688 2.921875 -18.675781 3.640625 -21.5 C 4.878906 -26.226562 6.832031 -30.242188 9.5 -33.546875 C 12.164062 -36.859375 15.34375 -39.351562 19.03125 -41.03125 C 22.71875 -42.71875 26.757812 -43.5625 31.15625 -43.5625 Z M 30 -37.296875 C 28.71875 -37.296875 27.566406 -36.78125 26.546875 -35.75 C 25.523438 -34.726562 24.507812 -33.054688 23.5 -30.734375 C 22.5 -28.410156 21.425781 -25.179688 20.28125 -21.046875 C 18.570312 -15.078125 17.71875 -10.960938 17.71875 -8.703125 C 17.71875 -7.378906 17.953125 -6.414062 18.421875 -5.8125 C 18.890625 -5.21875 19.632812 -4.921875 20.65625 -4.921875 C 21.9375 -4.921875 23.085938 -5.441406 24.109375 -6.484375 C 25.140625 -7.535156 26.144531 -9.210938 27.125 -11.515625 C 28.101562 -13.816406 29.191406 -16.992188 30.390625 -21.046875 C 32.046875 -26.929688 32.875 -31.066406 32.875 -33.453125 C 32.875 -34.816406 32.640625 -35.796875 32.171875 -36.390625 C 31.703125 -36.992188 30.976562 -37.296875 30 -37.296875 Z M 30 -37.296875 "/></g></g></g><g fill="#ff7817" fill-opacity="1"><g transform="translate(378.797958, 98.426055)"><g><path d="M 23.921875 -42.984375 C 26.304688 -42.984375 28.507812 -42.695312 30.53125 -42.125 C 32.5625 -41.550781 34.625 -40.644531 36.71875 -39.40625 L 38.1875 -40.625 C 39.207031 -41.425781 40.046875 -41.976562 40.703125 -42.28125 C 41.367188 -42.582031 42.128906 -42.734375 42.984375 -42.734375 C 44.003906 -42.734375 44.8125 -42.507812 45.40625 -42.0625 C 46.007812 -41.613281 46.3125 -40.960938 46.3125 -40.109375 C 46.3125 -39.765625 46.25 -39.398438 46.125 -39.015625 L 43.4375 -30.1875 C 43.132812 -29.164062 42.757812 -28.441406 42.3125 -28.015625 C 41.863281 -27.585938 41.191406 -27.375 40.296875 -27.375 C 39.359375 -27.375 38.535156 -27.660156 37.828125 -28.234375 C 37.128906 -28.816406 36.035156 -30.003906 34.546875 -31.796875 C 33.046875 -33.492188 31.6875 -34.695312 30.46875 -35.40625 C 29.257812 -36.113281 28.015625 -36.46875 26.734375 -36.46875 C 25.796875 -36.46875 25.003906 -36.15625 24.359375 -35.53125 C 23.722656 -34.914062 23.40625 -34.160156 23.40625 -33.265625 C 23.40625 -32.242188 23.914062 -31.296875 24.9375 -30.421875 C 25.96875 -29.546875 27.570312 -28.445312 29.75 -27.125 C 31.96875 -25.800781 33.800781 -24.601562 35.25 -23.53125 C 36.695312 -22.46875 37.929688 -21.144531 38.953125 -19.5625 C 39.972656 -17.988281 40.484375 -16.179688 40.484375 -14.140625 C 40.484375 -12.816406 40.273438 -11.492188 39.859375 -10.171875 C 38.828125 -6.753906 36.835938 -4.160156 33.890625 -2.390625 C 30.953125 -0.628906 27.523438 0.25 23.609375 0.25 C 20.660156 0.25 18.179688 -0.0859375 16.171875 -0.765625 C 14.171875 -1.453125 12.128906 -2.601562 10.046875 -4.21875 L 7.734375 -2.296875 C 6.671875 -1.398438 5.796875 -0.789062 5.109375 -0.46875 C 4.429688 -0.15625 3.664062 0 2.8125 0 C 1.832031 0 1.050781 -0.234375 0.46875 -0.703125 C -0.101562 -1.171875 -0.390625 -1.8125 -0.390625 -2.625 C -0.390625 -3.050781 -0.300781 -3.5 -0.125 -3.96875 L 3 -13.5 C 3.34375 -14.601562 3.8125 -15.390625 4.40625 -15.859375 C 5.007812 -16.328125 5.78125 -16.5625 6.71875 -16.5625 C 7.695312 -16.5625 8.582031 -16.21875 9.375 -15.53125 C 10.164062 -14.851562 11.195312 -13.617188 12.46875 -11.828125 C 13.832031 -9.867188 15.101562 -8.503906 16.28125 -7.734375 C 17.457031 -6.972656 18.851562 -6.59375 20.46875 -6.59375 C 21.625 -6.59375 22.507812 -6.769531 23.125 -7.125 C 23.738281 -7.488281 24.175781 -8.078125 24.4375 -8.890625 C 24.519531 -9.109375 24.5625 -9.425781 24.5625 -9.84375 C 24.5625 -10.875 24.070312 -11.8125 23.09375 -12.65625 C 22.113281 -13.507812 20.597656 -14.535156 18.546875 -15.734375 C 16.367188 -17.054688 14.597656 -18.238281 13.234375 -19.28125 C 11.867188 -20.332031 10.6875 -21.644531 9.6875 -23.21875 C 8.6875 -24.800781 8.1875 -26.65625 8.1875 -28.78125 C 8.1875 -30.28125 8.421875 -31.753906 8.890625 -33.203125 C 9.785156 -36.140625 11.617188 -38.503906 14.390625 -40.296875 C 17.160156 -42.085938 20.335938 -42.984375 23.921875 -42.984375 Z M 23.921875 -42.984375 "/></g></g></g><g fill="#000000" fill-opacity="1"><g transform="translate(327.617212, 94.128599)"><g><path d="M 31.15625 -43.5625 C 36.53125 -43.5625 40.726562 -42.289062 43.75 -39.75 C 46.78125 -37.21875 48.296875 -33.5625 48.296875 -28.78125 C 48.296875 -26.519531 47.953125 -24.09375 47.265625 -21.5 C 45.992188 -16.71875 44.015625 -12.660156 41.328125 -9.328125 C 38.640625 -6.003906 35.4375 -3.488281 31.71875 -1.78125 C 28.007812 -0.0820312 23.984375 0.765625 19.640625 0.765625 C 14.304688 0.765625 10.125 -0.5 7.09375 -3.03125 C 4.070312 -5.570312 2.5625 -9.234375 2.5625 -14.015625 C 2.5625 -16.179688 2.921875 -18.675781 3.640625 -21.5 C 4.878906 -26.226562 6.832031 -30.242188 9.5 -33.546875 C 12.164062 -36.859375 15.34375 -39.351562 19.03125 -41.03125 C 22.71875 -42.71875 26.757812 -43.5625 31.15625 -43.5625 Z M 30 -37.296875 C 28.71875 -37.296875 27.566406 -36.78125 26.546875 -35.75 C 25.523438 -34.726562 24.507812 -33.054688 23.5 -30.734375 C 22.5 -28.410156 21.425781 -25.179688 20.28125 -21.046875 C 18.570312 -15.078125 17.71875 -10.960938 17.71875 -8.703125 C 17.71875 -7.378906 17.953125 -6.414062 18.421875 -5.8125 C 18.890625 -5.21875 19.632812 -4.921875 20.65625 -4.921875 C 21.9375 -4.921875 23.085938 -5.441406 24.109375 -6.484375 C 25.140625 -7.535156 26.144531 -9.210938 27.125 -11.515625 C 28.101562 -13.816406 29.191406 -16.992188 30.390625 -21.046875 C 32.046875 -26.929688 32.875 -31.066406 32.875 -33.453125 C 32.875 -34.816406 32.640625 -35.796875 32.171875 -36.390625 C 31.703125 -36.992188 30.976562 -37.296875 30 -37.296875 Z M 30 -37.296875 "/></g></g></g><g fill="#000000" fill-opacity="1"><g transform="translate(374.500518, 94.128599)"><g><path d="M 23.921875 -42.984375 C 26.304688 -42.984375 28.507812 -42.695312 30.53125 -42.125 C 32.5625 -41.550781 34.625 -40.644531 36.71875 -39.40625 L 38.1875 -40.625 C 39.207031 -41.425781 40.046875 -41.976562 40.703125 -42.28125 C 41.367188 -42.582031 42.128906 -42.734375 42.984375 -42.734375 C 44.003906 -42.734375 44.8125 -42.507812 45.40625 -42.0625 C 46.007812 -41.613281 46.3125 -40.960938 46.3125 -40.109375 C 46.3125 -39.765625 46.25 -39.398438 46.125 -39.015625 L 43.4375 -30.1875 C 43.132812 -29.164062 42.757812 -28.441406 42.3125 -28.015625 C 41.863281 -27.585938 41.191406 -27.375 40.296875 -27.375 C 39.359375 -27.375 38.535156 -27.660156 37.828125 -28.234375 C 37.128906 -28.816406 36.035156 -30.003906 34.546875 -31.796875 C 33.046875 -33.492188 31.6875 -34.695312 30.46875 -35.40625 C 29.257812 -36.113281 28.015625 -36.46875 26.734375 -36.46875 C 25.796875 -36.46875 25.003906 -36.15625 24.359375 -35.53125 C 23.722656 -34.914062 23.40625 -34.160156 23.40625 -33.265625 C 23.40625 -32.242188 23.914062 -31.296875 24.9375 -30.421875 C 25.96875 -29.546875 27.570312 -28.445312 29.75 -27.125 C 31.96875 -25.800781 33.800781 -24.601562 35.25 -23.53125 C 36.695312 -22.46875 37.929688 -21.144531 38.953125 -19.5625 C 39.972656 -17.988281 40.484375 -16.179688 40.484375 -14.140625 C 40.484375 -12.816406 40.273438 -11.492188 39.859375 -10.171875 C 38.828125 -6.753906 36.835938 -4.160156 33.890625 -2.390625 C 30.953125 -0.628906 27.523438 0.25 23.609375 0.25 C 20.660156 0.25 18.179688 -0.0859375 16.171875 -0.765625 C 14.171875 -1.453125 12.128906 -2.601562 10.046875 -4.21875 L 7.734375 -2.296875 C 6.671875 -1.398438 5.796875 -0.789062 5.109375 -0.46875 C 4.429688 -0.15625 3.664062 0 2.8125 0 C 1.832031 0 1.050781 -0.234375 0.46875 -0.703125 C -0.101562 -1.171875 -0.390625 -1.8125 -0.390625 -2.625 C -0.390625 -3.050781 -0.300781 -3.5 -0.125 -3.96875 L 3 -13.5 C 3.34375 -14.601562 3.8125 -15.390625 4.40625 -15.859375 C 5.007812 -16.328125 5.78125 -16.5625 6.71875 -16.5625 C 7.695312 -16.5625 8.582031 -16.21875 9.375 -15.53125 C 10.164062 -14.851562 11.195312 -13.617188 12.46875 -11.828125 C 13.832031 -9.867188 15.101562 -8.503906 16.28125 -7.734375 C 17.457031 -6.972656 18.851562 -6.59375 20.46875 -6.59375 C 21.625 -6.59375 22.507812 -6.769531 23.125 -7.125 C 23.738281 -7.488281 24.175781 -8.078125 24.4375 -8.890625 C 24.519531 -9.109375 24.5625 -9.425781 24.5625 -9.84375 C 24.5625 -10.875 24.070312 -11.8125 23.09375 -12.65625 C 22.113281 -13.507812 20.597656 -14.535156 18.546875 -15.734375 C 16.367188 -17.054688 14.597656 -18.238281 13.234375 -19.28125 C 11.867188 -20.332031 10.6875 -21.644531 9.6875 -23.21875 C 8.6875 -24.800781 8.1875 -26.65625 8.1875 -28.78125 C 8.1875 -30.28125 8.421875 -31.753906 8.890625 -33.203125 C 9.785156 -36.140625 11.617188 -38.503906 14.390625 -40.296875 C 17.160156 -42.085938 20.335938 -42.984375 23.921875 -42.984375 Z M 23.921875 -42.984375 "/></g></g></g></svg>